<svg width="22" height="20" viewBox="0 0 22 20" fill="none" xmlns="http://www.w3.org/2000/svg">
<path d="M10.5557 5.13835C10.5556 5.1383 10.5556 5.13826 10.5556 5.13822L10.5554 5.13793L10.5506 5.12883C10.5457 5.11992 10.5378 5.10544 10.5267 5.08597C10.5045 5.04699 10.4699 4.98814 10.4228 4.91394C10.3284 4.76528 10.1851 4.55652 9.99282 4.32322C9.33084 3.51983 8.15472 2.5 6.45712 2.5C4.26259 2.5 2.52296 4.28128 2.50045 6.40563L10.5557 5.13835ZM10.5557 5.13835L10.5557 5.13847C10.5557 5.1385 10.5558 5.13853 10.5558 5.13856C10.5558 5.1386 10.5558 5.13864 10.5558 5.13868C10.5559 5.1387 10.5559 5.13873 10.5559 5.13876C10.5559 5.13884 10.556 5.13892 10.556 5.13899L10.5561 5.1392C10.642 5.30497 10.8132 5.40908 11 5.40908C11.1871 5.40908 11.3586 5.30462 11.4443 5.13835L11.4444 5.13822L11.4446 5.13792L11.4494 5.12882C11.4543 5.11992 11.4622 5.10544 11.4733 5.08597C11.4955 5.04699 11.5301 4.98814 11.5772 4.91394C11.6716 4.76528 11.8149 4.55652 12.0072 4.32322C12.6692 3.51983 13.8453 2.5 15.5429 2.5C17.7374 2.5 19.477 4.28126 19.4996 6.40558C19.5235 8.73754 18.5736 10.7512 17.0401 12.5642C15.5004 14.3843 13.3916 15.9788 11.1469 17.4564L11.1465 17.4567C11.1046 17.4843 11.0536 17.5 11 17.5C10.9464 17.5 10.8954 17.4843 10.8535 17.4567L10.853 17.4564C8.60813 15.9788 6.4992 14.3843 4.95957 12.5642C3.42608 10.7512 2.47628 8.73762 2.50045 6.40572L10.5557 5.13835ZM10.5758 2.72113L10.9101 2.37399C10.9406 2.40335 10.9705 2.4327 11 2.462C11.0295 2.4327 11.0594 2.40335 11.0899 2.37399L11.4242 2.72113L11.09 2.37399C12.0172 1.48121 13.5061 0.5 15.5429 0.5C18.8514 0.5 21.4656 3.18198 21.4994 6.38487L21.4995 6.38502C21.5297 9.32831 20.3137 11.7909 18.5671 13.8558C16.8388 15.899 14.5366 17.6195 12.2468 19.1268L10.5758 2.72113ZM10.5758 2.72113L10.9101 2.37399C9.98281 1.48121 8.49392 0.5 6.45712 0.5C3.1486 0.5 0.534425 3.18165 0.500563 6.38458L0.500562 6.38468M10.5758 2.72113L0.500562 6.38468M0.500562 6.38468C0.470024 9.32802 1.68596 11.7909 3.43258 13.8558C5.16075 15.8989 7.46336 17.6196 9.75328 19.1269C10.1251 19.3718 10.5593 19.5 11 19.5M0.500562 6.38468L11 19.5M11 19.5C11.4406 19.5 11.8748 19.3718 12.2466 19.127L11 19.5Z" fill="#2B7EFE" stroke="#2B7EFE" stroke-linecap="round" stroke-linejoin="round"/>
</svg>
